<?xml version="1.0" standalone="no"?>
<!DOCTYPE svg PUBLIC "-//W3C//DTD SVG 20010904//EN"
 "http://www.w3.org/TR/2001/REC-SVG-20010904/DTD/svg10.dtd">
<svg version="1.0" xmlns="http://www.w3.org/2000/svg"
 width="136.000000pt" height="136.000000pt" viewBox="0 0 136.000000 136.000000"
 preserveAspectRatio="xMidYMid meet">
<metadata>
Created by potrace 1.11, written by Peter Selinger 2001-2013
</metadata>
<g transform="translate(0.000000,136.000000) scale(0.100000,-0.100000)"
fill="#000000" stroke="none">
<path d="M8 1203 c-3 -7 -2 -192 1 -245 1 -15 10 -18 50 -18 28 0 52 4 56 9 7
12 -32 34 -45 26 -16 -10 -24 19 -26 103 -1 47 -5 95 -8 108 -6 23 -21 32 -28
17z"/>
<path d="M135 1077 c-4 -13 -5 -48 -3 -78 3 -50 5 -54 28 -54 19 0 26 6 28 25
2 23 2 24 -11 7 -14 -17 -15 -16 -20 2 -3 14 1 22 14 26 19 6 26 46 13 79 -9
24 -43 20 -49 -7z m29 -22 c3 -8 1 -15 -4 -15 -6 0 -10 7 -10 15 0 8 2 15 4
15 2 0 6 -7 10 -15z"/>
<path d="M1045 818 l0 -253 28 -3 c41 -5 46 20 43 223 -2 142 -5 188 -18 218
-10 20 -14 37 -11 37 3 0 0 7 -7 15 -32 39 -35 18 -35 -237z"/>
<path d="M243 1042 c-30 -19 -35 -113 -19 -327 2 -27 0 -60 -5 -73 -11 -29 6
-64 28 -60 23 4 30 38 32 153 2 106 4 115 27 115 22 0 32 -39 38 -135 5 -97
26 -146 52 -124 28 23 11 244 -23 295 -12 18 -24 24 -54 24 l-38 0 -3 67 c-3
65 -11 80 -35 65z"/>
<path d="M764 922 c-12 -8 -44 -97 -44 -121 0 -9 -5 -34 -12 -56 l-11 -40 -9
35 c-20 78 -49 170 -54 170 -20 0 -44 -24 -44 -45 0 -35 88 -301 104 -314 20
-17 43 16 50 74 4 28 13 75 21 105 18 74 29 186 18 193 -5 3 -14 3 -19 -1z"/>
<path d="M92 913 c-39 -8 -49 -49 -54 -242 -3 -79 -2 -85 22 -102 40 -29 85
-31 110 -4 24 25 38 89 22 99 -11 6 -52 -30 -52 -46 0 -4 -9 -8 -20 -8 -21 0
-21 -1 -25 114 -4 104 22 159 55 118 22 -27 40 -21 40 12 0 39 -48 68 -98 59z"/>
<path d="M852 906 c-30 -14 -34 -32 -37 -147 -2 -54 -5 -101 -8 -106 -3 -5 4
-33 16 -63 l22 -55 45 0 c25 -1 53 3 63 7 10 5 25 4 37 -2 17 -9 20 -6 29 25
9 34 8 54 -3 93 -3 9 -7 44 -11 77 -17 189 -16 185 -78 184 -29 -1 -62 -6 -75
-13z m91 -153 c-3 -104 -10 -153 -23 -153 -12 0 -18 26 -25 113 -3 37 -8 74
-11 82 -10 24 4 63 24 68 30 7 38 -18 35 -110z"/>
<path d="M473 900 c-36 -15 -42 -41 -46 -192 -5 -183 -3 -188 63 -188 61 0 92
24 84 66 -7 37 -12 44 -29 37 -8 -3 -15 -16 -15 -30 0 -37 -32 -25 -42 16 -11
41 -5 61 19 61 10 0 29 7 41 16 21 14 22 21 18 89 -5 80 -16 109 -46 125 -21
11 -18 11 -47 0z m33 -105 c7 -38 0 -55 -16 -39 -11 11 -20 60 -13 68 14 13
22 4 29 -29z"/>
<path d="M765 388 c0 -222 0 -223 22 -226 35 -5 42 25 41 182 0 154 -20 258
-49 264 -12 2 -14 -37 -14 -220z"/>
<path d="M601 571 c-16 -28 -7 -312 11 -366 12 -38 15 -40 52 -40 61 0 78 31
84 152 4 88 2 101 -17 125 -17 21 -28 26 -56 24 -26 -3 -35 1 -36 13 -5 94
-19 128 -38 92z m93 -167 c3 -9 6 -55 6 -104 0 -68 -3 -89 -15 -93 -8 -4 -17
-2 -20 3 -9 14 -19 135 -16 193 1 22 37 23 45 1z"/>
<path d="M888 464 c-32 -17 -37 -35 -39 -154 -1 -69 3 -105 15 -133 l17 -38
72 5 c70 4 72 5 77 33 3 15 2 45 -2 67 -5 21 -11 60 -13 85 -7 80 -16 135 -21
140 -11 11 -82 7 -106 -5z m73 -61 c3 -86 -3 -193 -12 -199 -10 -6 -20 11 -24
44 -16 141 -16 165 -3 173 24 16 38 9 39 -18z"/>
<path d="M1049 450 c-2 -23 2 -187 5 -202 2 -7 6 -34 11 -60 7 -44 25 -62 39
-39 3 4 6 65 7 135 1 70 5 129 9 131 14 8 23 -41 34 -180 6 -71 14 -97 30 -92
20 7 22 60 5 175 -10 76 -21 118 -33 130 -22 22 -105 24 -107 2z"/>
<path d="M1241 456 c-11 -14 -18 -69 -25 -199 -3 -62 -1 -69 22 -87 46 -37 99
-20 116 37 4 13 3 30 -2 39 -9 17 -10 17 -51 -32 -12 -14 -15 -15 -22 -1 -5 8
-10 44 -11 79 -2 109 18 154 52 113 15 -18 30 -11 30 14 0 42 -82 70 -109 37z"/>
</g>
</svg>
